<?xml version="1.0" encoding="utf-8"?>
<!-- Generator: Adobe Illustrator 16.0.0, SVG Export Plug-In . SVG Version: 6.00 Build 0)  -->
<!DOCTYPE svg PUBLIC "-//W3C//DTD SVG 1.1//EN" "http://www.w3.org/Graphics/SVG/1.1/DTD/svg11.dtd">
<svg version="1.1" id="Layer_1" xmlns="http://www.w3.org/2000/svg" xmlns:xlink="http://www.w3.org/1999/xlink" x="0px" y="0px"
	 width="128px" height="128px" viewBox="0 0 128 128" enable-background="new 0 0 128 128" xml:space="preserve">
<g>
	<g>
		<text transform="matrix(1 0 0 1 50.478 90.1543)" fill="#603913" font-family="'Neris-LightItalic'" font-size="9.3674">organic</text>
		<g>
			<g>
				<text transform="matrix(1 0 0 1 19.9629 78.8652)" fill="#D64729" font-family="'Anagram'" font-size="19.8612">GROPURE</text>
			</g>
		</g>
		<g>
			<path fill="#2B3990" d="M76.27,36.687v1.249c11.211,3.47,20.115,12.388,23.729,23.722h1.233
				C97.544,49.666,88.129,40.228,76.27,36.687z"/>
			<path fill="#2B3990" d="M55.363,36.722c-11.808,3.567-21.174,12.983-24.851,24.937h1.234
				c3.601-11.296,12.459-20.191,23.616-23.685V36.722z"/>
			<path fill="#2B3990" d="M100.183,83.61c-4.495,14.963-18.173,25.877-34.311,25.877c-16.136,0-29.815-10.914-34.31-25.877h-1.217
				c4.534,15.627,18.739,27.071,35.526,27.071c16.788,0,30.994-11.444,35.527-27.071H100.183z"/>
		</g>
		<g>
			<path fill="#2B3990" stroke="#293A8E" stroke-width="5" stroke-miterlimit="10" d="M55.545,32.108
				c-13.899,3.659-25.018,14.46-29.324,28.33l1.389,0.003c4.224-13.132,14.77-23.357,27.941-26.946L55.545,32.108z"/>
			<path fill="#2B3990" stroke="#293A8E" stroke-width="5" stroke-miterlimit="10" d="M76.453,32.126l0.006,1.395
				c13.203,3.632,23.741,13.935,27.907,27.126l1.387,0.003C101.508,46.715,90.391,35.83,76.453,32.126z"/>
			<path fill="#2B3990" stroke="#293A8E" stroke-width="5" stroke-miterlimit="10" d="M104.506,85.332
				c-5.101,16.814-20.515,29.049-38.662,29.002c-18.147-0.049-33.499-12.366-38.508-29.208l-1.368-0.005
				c5.051,17.594,20.993,30.503,39.873,30.554c18.88,0.05,34.889-12.774,40.033-30.339L104.506,85.332z"/>
		</g>
	</g>
	<path fill="#3F6731" d="M59.29,53.049c0,0,11.763-16.902,1.858-23.528c-9.905-6.626-21.229,5.244-22.542-16.33
		c0,0,22.625-5.312,25.515,13.502c0,0-0.484-16.662,14.43-15.993c1.454,0.069,2.21,7.033,2.116,7.986
		c-0.521,5.282-5.133,6.285-8.589,9.169c-4.987,4.16-2.926,7.601-3.825,13.46c-0.826,5.376,0.454,9.957-2.618,14.46
		C65.635,55.776,61.516,58.617,59.29,53.049z"/>
</g>
</svg>
