<?xml version="1.0" encoding="utf-8"?>
<!-- Generator: Adobe Illustrator 16.0.0, SVG Export Plug-In . SVG Version: 6.00 Build 0)  -->
<!DOCTYPE svg PUBLIC "-//W3C//DTD SVG 1.1//EN" "http://www.w3.org/Graphics/SVG/1.1/DTD/svg11.dtd">
<svg version="1.1" xmlns="http://www.w3.org/2000/svg" xmlns:xlink="http://www.w3.org/1999/xlink" x="0px" y="0px"
	 width="255.566px" height="49.09px" viewBox="0 0 255.566 49.09" enable-background="new 0 0 255.566 49.09" xml:space="preserve">
<g id="Layer_1" display="none">
	<g display="inline">
		<path fill="#FFFFFF" d="M70.574,32.818l1.62,3.06c-1.26,1.035-2.97,1.666-4.635,1.666c-3.601,0-6.12-2.609-6.12-6.346v-13.68
			h-3.51v-3.78h3.51v-6.39h4.365v6.39h5.489v3.78h-5.489v13.365c0,1.619,1.079,2.789,2.385,2.789
			C69.179,33.672,70.079,33.313,70.574,32.818z M79.619,18.193v-4.455h-4.455v23.265h4.455V23.773
			c0.405-4.05,3.825-6.705,8.64-6.705v-3.87C84.254,13.198,81.104,15.133,79.619,18.193z M110.308,22.918v14.084h-4.365v-3.194
			c-1.71,2.43-4.905,3.733-7.74,3.733c-4.95,0-8.595-2.879-8.595-7.424c0-4.636,4.185-7.741,9.313-7.741
			c2.295,0,4.771,0.495,7.021,1.26v-0.72c0-2.925-1.351-6.03-5.985-6.03c-2.295,0-4.545,0.9-6.569,1.935l-1.62-3.285
			c3.33-1.665,6.254-2.34,8.818-2.34C106.844,13.198,110.308,17.158,110.308,22.918z M105.944,26.608
			c-1.89-0.585-4.05-0.898-6.345-0.898c-3.105,0-5.716,1.754-5.716,4.273s2.25,4.051,5.176,4.051c2.88,0,6.12-1.439,6.885-4.32
			V26.608z M126.778,13.198c-3.15,0-5.985,1.62-7.38,3.915v-3.375h-4.455v23.265h4.455V21.928c0.358-2.745,3.148-4.86,6.39-4.86
			c3.149,0,5.354,2.43,5.354,5.895v14.04h4.364V22.198C135.508,16.933,131.908,13.198,126.778,13.198z M149.413,23.323
			c-3.915-1.215-5.354-1.755-5.354-3.555c0-1.755,1.801-2.745,4.096-2.745c2.024,0,4.364,0.765,6.614,2.16l1.979-3.285
			c-2.521-1.665-5.58-2.7-8.595-2.7c-4.95,0-8.505,2.79-8.46,7.065c0,3.78,2.655,5.31,8.01,6.795c2.88,0.81,5.265,1.485,5.265,3.646
			c0,1.799-1.8,3.016-4.409,3.016c-2.744,0-5.399-1.035-7.874-2.836l-2.115,3.195c2.79,2.25,6.523,3.465,9.944,3.465
			c5.085,0,8.819-2.791,8.819-7.199C157.333,25.708,153.237,24.448,149.413,23.323z M171.732,33.672
			c-4.275,0-7.785-3.779-7.785-8.324c0-4.5,3.51-8.28,7.74-8.28c2.159,0,4.185,0.945,5.579,2.52l3.016-2.79
			c-2.205-2.205-5.22-3.6-8.55-3.6c-6.66,0-12.285,5.535-12.285,12.15s5.625,12.193,12.24,12.193c3.465,0,6.479-1.438,8.729-3.733
			l-3.015-2.745C175.962,32.683,173.892,33.672,171.732,33.672z M204.717,26.922h-18.313c0.585,3.869,3.42,6.66,7.425,6.66
			c2.43,0,5.265-1.08,6.66-2.521l2.79,2.88c-2.07,2.205-6.12,3.6-9.405,3.6c-6.479,0-11.97-5.084-11.97-12.238
			c0-6.975,5.175-12.105,11.61-12.105C200.622,13.198,204.717,18.598,204.717,26.922z M200.397,23.368
			c-0.495-3.6-2.7-6.21-6.705-6.21c-3.601,0-6.524,2.43-7.245,6.21H200.397z M219.927,13.198c-3.149,0-5.984,1.62-7.381,3.915
			v-3.375h-4.454v23.265h4.454V21.928c0.36-2.745,3.15-4.86,6.391-4.86c3.149,0,5.354,2.43,5.354,5.895v14.04h4.364V22.198
			C228.656,16.933,225.056,13.198,219.927,13.198z M255.566,5.549v31.454h-4.409v-4.049c-1.8,2.879-4.68,4.59-8.28,4.59
			c-6.119,0-10.709-5.041-10.709-12.194c0-7.11,4.59-12.15,10.709-12.15c3.602,0,6.48,1.71,8.28,4.545V5.549H255.566z
			 M251.157,25.348c0-4.86-3.016-8.28-7.2-8.28c-4.273,0-7.289,3.42-7.289,8.28c0,4.859,3.016,8.324,7.289,8.324
			C248.141,33.672,251.157,30.208,251.157,25.348z"/>
		<path fill="#FFFFFF" d="M22.5,0L0,12.273v24.813L22.5,49.09L45,37.086V12.406L22.5,0z M20.455,43.364L6.824,36.092l8.593-5.729
			c2.209-1.471-0.135-4.825-2.543-3.222l-8.783,5.854V16.834l16.364,8.924V43.364z M6.408,13.439l14.046-7.662v9.053
			c0,2.706,4.091,2.708,4.091,0V5.799l14.135,7.795l-16.17,8.628L6.408,13.439z M24.545,25.773l16.364-8.732v15.956l-8.72-5.813
			c-2.416-1.606-4.752,1.749-2.547,3.22l8.533,5.688l-13.631,7.274V25.773z"/>
	</g>
</g>
<g id="Layer_2">
	<g>
		<g>
			<text transform="matrix(1 0 0 1 93.5857 64.6118)" fill="#603813" font-family="'Neris-LightItalic'" font-size="21.6795">organic</text>
			<g>
				<g>
					<text transform="matrix(1 0 0 1 0.9661 42.937)" fill="#D54628" font-family="'Anagram'" font-size="55.6003">GROPURE</text>
				</g>
			</g>
			<g>
				<path fill="#2B388F" d="M153.276-59.131v2.891c25.947,8.031,46.554,28.67,54.917,54.901h2.854
					C202.513-29.094,180.723-50.936,153.276-59.131z"/>
				<path fill="#2B388F" d="M104.89-59.051C77.563-50.796,55.885-29.004,47.377-1.339h2.857
					c8.334-26.142,28.835-46.729,54.656-54.815V-59.051z"/>
				<path fill="#2B388F" d="M208.62,49.466c-10.403,34.628-42.06,59.888-79.407,59.888c-37.344,0-69.004-25.26-79.404-59.888h-2.816
					c10.492,36.165,43.369,62.654,82.22,62.654c38.854,0,71.731-26.489,82.224-62.654H208.62z"/>
			</g>
			<g>
				<path fill="#2B388F" stroke="#293A8D" stroke-width="5" stroke-miterlimit="10" d="M105.313-69.728
					C73.146-61.26,47.414-36.261,37.446-4.162l3.214,0.006c9.776-30.392,34.182-54.057,64.667-62.361L105.313-69.728z"/>
				<path fill="#2B388F" stroke="#293A8D" stroke-width="5" stroke-miterlimit="10" d="M153.702-69.686l0.013,3.228
					c30.557,8.406,54.946,32.25,64.588,62.78l3.209,0.008C211.686-35.922,185.958-61.116,153.702-69.686z"/>
				<path fill="#2B388F" stroke="#293A8D" stroke-width="5" stroke-miterlimit="10" d="M218.626,53.453
					c-11.805,38.914-47.479,67.229-89.479,67.121c-42-0.114-77.529-28.622-89.122-67.602l-3.167-0.009
					c11.69,40.72,48.584,70.593,92.28,70.711c43.694,0.118,80.744-29.562,92.651-70.213L218.626,53.453z"/>
			</g>
		</g>
		<path fill="#3F6731" d="M113.978-21.264c0,0,27.225-39.119,4.301-54.452c-22.923-15.336-49.13,12.136-52.168-37.792
			c0,0,52.363-12.293,59.05,31.249c0,0-1.121-38.562,33.395-37.014c3.365,0.16,5.114,16.277,4.898,18.483
			c-1.208,12.225-11.88,14.546-19.878,21.22c-11.543,9.627-6.771,17.592-8.854,31.151c-1.911,12.441,1.052,23.042-6.059,33.466
			C128.664-14.953,119.131-8.378,113.978-21.264z"/>
	</g>
</g>
</svg>
