<?xml version="1.0" encoding="utf-8"?>
<!-- Generator: Adobe Illustrator 16.0.0, SVG Export Plug-In . SVG Version: 6.00 Build 0)  -->
<!DOCTYPE svg PUBLIC "-//W3C//DTD SVG 1.1//EN" "http://www.w3.org/Graphics/SVG/1.1/DTD/svg11.dtd">
<svg version="1.1" id="Layer_1" xmlns="http://www.w3.org/2000/svg" xmlns:xlink="http://www.w3.org/1999/xlink" x="0px" y="0px"
	 width="630px" height="250px" viewBox="0 0 630 250" enable-background="new 0 0 630 250" xml:space="preserve">
<g>
	<defs>
		<path id="SVGID_1_" d="M46.723,47.908c-7.782,3.104-14.506,7.405-20.164,12.899c-5.661,5.498-10.041,12-13.143,19.512
			c-3.103,7.509-4.654,15.673-4.654,24.491c0,8.926,1.524,17.141,4.573,24.654c3.045,7.51,7.346,13.959,12.899,19.346
			c5.549,5.388,12.217,9.609,19.999,12.655c7.782,3.046,16.409,4.571,25.878,4.571c4.68,0,10.26-0.627,16.737-1.878
			c6.473-1.25,12.707-3.291,18.695-6.123v-48.98H88.767v39.836c-3.485,0.98-6.532,1.609-9.143,1.878
			c-2.614,0.273-5.119,0.409-7.513,0.409c-6.203,0-11.837-1.172-16.897-3.514c-5.063-2.345-9.417-5.591-13.061-9.733
			c-3.649-4.144-6.478-9.05-8.491-14.72c-2.016-5.67-3.02-11.831-3.02-18.482c0-6.868,1.033-13.168,3.101-18.892
			c2.067-5.726,4.924-10.631,8.572-14.72c3.645-4.087,8.026-7.277,13.143-9.567c5.116-2.292,10.776-3.436,16.982-3.436
			c3.807,0,7.971,0.382,12.49,1.143c4.514,0.762,9.82,2.342,15.918,4.734l5.226-13.629c-5.989-2.582-11.92-4.416-17.797-5.491
			c-5.88-1.077-11.158-1.615-15.837-1.615C63.075,43.256,54.506,44.807,46.723,47.908"/>
	</defs>
	<clipPath id="SVGID_2_">
		<use xlink:href="#SVGID_1_"  overflow="visible"/>
	</clipPath>
	
		<linearGradient id="SVGID_3_" gradientUnits="userSpaceOnUse" x1="-105.9395" y1="455.001" x2="-104.9395" y2="455.001" gradientTransform="matrix(0 122.7794 122.7794 0 -55806.5273 13050.498)">
		<stop  offset="0" style="stop-color:#8DC63F"/>
		<stop  offset="0.3238" style="stop-color:#8AC241"/>
		<stop  offset="0.6266" style="stop-color:#7FB949"/>
		<stop  offset="0.8052" style="stop-color:#74B250"/>
		<stop  offset="1" style="stop-color:#74B250"/>
	</linearGradient>
	<rect x="8.762" y="43.256" clip-path="url(#SVGID_2_)" fill="url(#SVGID_3_)" width="98.781" height="122.78"/>
</g>
<g>
	<defs>
		<path id="SVGID_4_" d="M155.952,81.951c-3.651,2.505-6.56,5.877-8.736,10.123l-1.633,3.593l-0.163-3.593
			c-0.436-2.72-1.117-5.169-2.04-7.347c-0.928-2.176-1.989-3.862-3.185-5.062h-15.02c1.196,4.791,1.929,9.471,2.203,14.043
			c0.27,4.57,0.407,9.089,0.407,13.55v56.819h18.777v-41.471c0-8.818,1.797-15.646,5.388-20.491
			c3.592-4.841,8.107-7.266,13.554-7.266c1.196,0,2.473,0.083,3.836,0.246c1.358,0.163,3.074,0.518,5.141,1.061l2.449-16.164
			c-1.85-0.544-3.536-0.98-5.061-1.307c-1.524-0.325-3.048-0.49-4.572-0.49C163.38,78.195,159.596,79.448,155.952,81.951"/>
	</defs>
	<clipPath id="SVGID_5_">
		<use xlink:href="#SVGID_4_"  overflow="visible"/>
	</clipPath>
	
		<linearGradient id="SVGID_6_" gradientUnits="userSpaceOnUse" x1="-105.9399" y1="455" x2="-104.9399" y2="455" gradientTransform="matrix(0 85.8817 85.8817 0 -38925.1328 9176.4941)">
		<stop  offset="0" style="stop-color:#8DC63F"/>
		<stop  offset="0.3238" style="stop-color:#8AC241"/>
		<stop  offset="0.6266" style="stop-color:#7FB949"/>
		<stop  offset="0.8052" style="stop-color:#74B250"/>
		<stop  offset="1" style="stop-color:#74B250"/>
	</linearGradient>
	<rect x="125.175" y="78.195" clip-path="url(#SVGID_5_)" fill="url(#SVGID_6_)" width="51.755" height="85.882"/>
</g>
<g>
	<defs>
		<path id="SVGID_7_" d="M218.726,149.056c-2.611-1.413-4.816-3.427-6.611-6.042c-1.797-2.611-3.159-5.715-4.083-9.306
			c-0.925-3.592-1.388-7.565-1.388-11.919c0-8.816,1.906-15.891,5.714-21.225c3.81-5.331,8.871-8.001,15.185-8.001
			c6.312,0,11.374,2.67,15.184,8.001c3.81,5.334,5.715,12.409,5.715,21.225c0,4.029-0.435,7.837-1.305,11.43
			c-0.874,3.591-2.181,6.721-3.92,9.387c-1.743,2.67-3.919,4.765-6.53,6.285c-2.613,1.527-5.66,2.287-9.144,2.287
			C224.278,151.178,221.34,150.471,218.726,149.056 M212.93,80.319c-4.955,1.742-9.469,4.408-13.551,7.999
			c-4.081,3.592-7.428,8.163-10.042,13.716c-2.61,5.552-3.918,12.139-3.918,19.755c0,7.079,1.144,13.364,3.428,18.858
			c2.287,5.498,5.36,10.122,9.227,13.878c3.862,3.756,8.326,6.613,13.386,8.573c5.063,1.958,10.423,2.938,16.083,2.938
			c5.332,0,10.532-0.98,15.592-2.938c5.062-1.96,9.553-4.841,13.47-8.654c3.918-3.81,7.076-8.435,9.471-13.878
			c2.392-5.442,3.591-11.698,3.591-18.777c0-6.31-0.98-12.162-2.939-17.551c-1.959-5.389-4.789-10.04-8.488-13.959
			c-3.702-3.92-8.14-6.994-13.308-9.226c-5.17-2.23-10.966-3.347-17.389-3.347C222.753,77.706,217.882,78.579,212.93,80.319"/>
	</defs>
	<clipPath id="SVGID_8_">
		<use xlink:href="#SVGID_7_"  overflow="visible"/>
	</clipPath>
	
		<linearGradient id="SVGID_9_" gradientUnits="userSpaceOnUse" x1="-105.9399" y1="455" x2="-104.9399" y2="455" gradientTransform="matrix(0 88.3306 88.3306 0 -39962.8672 9435.4268)">
		<stop  offset="0" style="stop-color:#8DC63F"/>
		<stop  offset="0.3238" style="stop-color:#8AC241"/>
		<stop  offset="0.6266" style="stop-color:#7FB949"/>
		<stop  offset="0.8052" style="stop-color:#74B250"/>
		<stop  offset="1" style="stop-color:#74B250"/>
	</linearGradient>
	<rect x="185.419" y="77.706" clip-path="url(#SVGID_8_)" fill="url(#SVGID_9_)" width="84.248" height="88.33"/>
</g>
<g>
	<defs>
		<path id="SVGID_10_" d="M321.832,79.992c-3.757,1.525-7.649,4.191-11.676,8.001l-2.121,3.266l-0.328-3.103
			c-0.762-1.849-1.577-3.483-2.449-4.898c-0.871-1.413-2.016-2.612-3.429-3.593h-15.019c1.085,4.899,1.767,9.661,2.04,14.287
			c0.271,4.628,0.408,9.77,0.408,15.428v94.046h19.756V104.32c6.53-7.839,13.17-11.757,19.918-11.757
			c3.047,0,5.77,0.792,8.164,2.369c2.395,1.579,4.407,3.7,6.042,6.366c1.632,2.671,2.857,5.826,3.674,9.47
			c0.816,3.648,1.223,7.539,1.223,11.674c0,8.926-1.714,15.866-5.143,20.819c-3.428,4.953-8.354,7.537-14.775,7.754
			c-3.158,0.109-5.77,1.2-7.839,3.267c-2.066,2.067-3.863,4.789-5.387,8.163c3.811,1.197,7.047,1.984,9.715,2.367
			c2.666,0.38,5.306,0.571,7.92,0.571c4.787,0,9.387-1.118,13.795-3.348c4.41-2.23,8.328-5.249,11.757-9.062
			c3.429-3.809,6.147-8.326,8.163-13.551c2.015-5.224,3.02-10.883,3.02-16.981c0-6.311-0.816-12.218-2.448-17.713
			c-1.632-5.496-4.029-10.231-7.185-14.206c-3.157-3.973-7.019-7.102-11.593-9.387c-4.569-2.286-9.741-3.43-15.509-3.43
			C329.148,77.706,325.585,78.468,321.832,79.992"/>
	</defs>
	<clipPath id="SVGID_11_">
		<use xlink:href="#SVGID_10_"  overflow="visible"/>
	</clipPath>
	
		<linearGradient id="SVGID_12_" gradientUnits="userSpaceOnUse" x1="-105.9399" y1="455" x2="-104.9399" y2="455" gradientTransform="matrix(0 125.7203 125.7203 0 -56874.6953 13396.4922)">
		<stop  offset="0" style="stop-color:#8DC63F"/>
		<stop  offset="0.3238" style="stop-color:#8AC241"/>
		<stop  offset="0.6266" style="stop-color:#7FB949"/>
		<stop  offset="0.8052" style="stop-color:#74B250"/>
		<stop  offset="1" style="stop-color:#74B250"/>
	</linearGradient>
	<rect x="286.809" y="77.706" clip-path="url(#SVGID_11_)" fill="url(#SVGID_12_)" width="82.45" height="125.72"/>
</g>
<g>
	<defs>
		<path id="SVGID_13_" d="M387.383,79.665v60.084c0,4.683,0.659,8.682,1.976,12c1.316,3.322,3.047,6.041,5.188,8.164
			c2.136,2.123,4.605,3.674,7.404,4.654c2.8,0.979,5.672,1.469,8.617,1.469c3.482,0,7.238-0.546,11.267-1.632
			c4.024-1.088,8.816-3.209,14.368-6.369c-1.525-2.176-3.185-4.162-4.981-5.958c-1.793-1.797-3.836-2.639-6.121-2.531
			c-1.853,0-3.511,0.219-4.98,0.653c-1.47,0.435-2.857,0.652-4.163,0.652c-3.049,0-5.225-1.005-6.531-3.02
			c-1.308-2.013-1.958-4.598-1.958-7.755V79.665H387.383z M440.121,79.665v66.452c0,3.265,0.438,6.343,1.316,9.225
			c0.878,2.885,2.577,5.796,5.102,8.735h16.276c-1.742-7.401-2.611-14.258-2.611-20.572v-63.84H440.121z"/>
	</defs>
	<clipPath id="SVGID_14_">
		<use xlink:href="#SVGID_13_"  overflow="visible"/>
	</clipPath>
	
		<linearGradient id="SVGID_15_" gradientUnits="userSpaceOnUse" x1="-105.9404" y1="455" x2="-104.9404" y2="455" gradientTransform="matrix(0 86.3715 86.3715 0 -38873.918 9229.8809)">
		<stop  offset="0" style="stop-color:#8DC63F"/>
		<stop  offset="0.3238" style="stop-color:#8AC241"/>
		<stop  offset="0.6266" style="stop-color:#7FB949"/>
		<stop  offset="0.8052" style="stop-color:#74B250"/>
		<stop  offset="1" style="stop-color:#74B250"/>
	</linearGradient>
	<rect x="387.383" y="79.665" clip-path="url(#SVGID_14_)" fill="url(#SVGID_15_)" width="75.432" height="86.371"/>
</g>
<g>
	<defs>
		<path id="SVGID_16_" d="M514.979,81.951c-3.65,2.505-6.558,5.877-8.734,10.123l-1.634,3.593l-0.163-3.593
			c-0.435-2.72-1.118-5.169-2.04-7.347c-0.928-2.176-1.987-3.862-3.184-5.062h-15.021c1.196,4.791,1.93,9.471,2.203,14.043
			c0.271,4.57,0.408,9.089,0.408,13.55v56.819h18.776v-41.471c0-8.818,1.798-15.646,5.388-20.491
			c3.592-4.841,8.108-7.266,13.553-7.266c1.196,0,2.475,0.083,3.836,0.246c1.36,0.163,3.075,0.518,5.143,1.061l2.45-16.164
			c-1.852-0.544-3.538-0.98-5.062-1.307c-1.525-0.325-3.049-0.49-4.573-0.49C522.408,78.195,518.625,79.448,514.979,81.951"/>
	</defs>
	<clipPath id="SVGID_17_">
		<use xlink:href="#SVGID_16_"  overflow="visible"/>
	</clipPath>
	
		<linearGradient id="SVGID_18_" gradientUnits="userSpaceOnUse" x1="-105.9399" y1="455" x2="-104.9399" y2="455" gradientTransform="matrix(0 85.8817 85.8817 0 -38566.1328 9176.4941)">
		<stop  offset="0" style="stop-color:#8DC63F"/>
		<stop  offset="0.3238" style="stop-color:#8AC241"/>
		<stop  offset="0.6266" style="stop-color:#7FB949"/>
		<stop  offset="0.8052" style="stop-color:#74B250"/>
		<stop  offset="1" style="stop-color:#74B250"/>
	</linearGradient>
	<rect x="484.203" y="78.195" clip-path="url(#SVGID_17_)" fill="url(#SVGID_18_)" width="51.756" height="85.882"/>
</g>
<g>
	<defs>
		<path id="SVGID_19_" d="M571.633,80.646c-5.062,1.959-9.472,4.817-13.227,8.571c-3.756,3.755-6.667,8.3-8.734,13.634
			c-2.07,5.333-3.102,11.322-3.102,17.959c0,5.877,0.869,11.538,2.612,16.98c1.739,5.443,4.351,10.26,7.836,14.449
			c3.483,4.191,7.838,7.538,13.062,10.041c5.224,2.503,11.319,3.756,18.287,3.756c4.68,0,9.55-0.546,14.612-1.632
			c5.061-1.088,10.42-2.992,16.081-5.715l-5.223-13.551c-4.684,2.178-8.793,3.729-12.328,4.651
			c-3.539,0.928-7.211,1.389-11.021,1.389c-7.184,0-13.007-2.747-17.469-8.245c-4.465-5.496-6.694-13.034-6.694-22.613
			c0-4.789,0.571-8.952,1.712-12.491c1.146-3.536,2.666-6.475,4.574-8.815c1.902-2.341,4.107-4.082,6.612-5.225
			c2.501-1.145,5.115-1.715,7.837-1.715c2.503,0,4.787,0.546,6.857,1.634c2.066,1.088,3.779,2.557,5.143,4.408
			c1.359,1.85,2.339,3.999,2.94,6.448c0.596,2.448,0.732,5.035,0.406,7.755h-16.816c-3.159,0-5.854,1.201-8.082,3.592
			c-2.232,2.396-3.947,5.335-5.144,8.817h46.37c2.177-6.53,2.938-12.653,2.284-18.367c-0.652-5.715-2.421-10.694-5.307-14.939
			c-2.883-4.247-6.691-7.594-11.426-10.043c-4.736-2.448-10.043-3.673-15.92-3.673C582.27,77.706,576.693,78.685,571.633,80.646"/>
	</defs>
	<clipPath id="SVGID_20_">
		<use xlink:href="#SVGID_19_"  overflow="visible"/>
	</clipPath>
	
		<linearGradient id="SVGID_21_" gradientUnits="userSpaceOnUse" x1="-105.9399" y1="455.002" x2="-104.9399" y2="455.002" gradientTransform="matrix(0 88.3306 88.3306 0 -39606.4922 9435.4268)">
		<stop  offset="0" style="stop-color:#8DC63F"/>
		<stop  offset="0.3238" style="stop-color:#8AC241"/>
		<stop  offset="0.6266" style="stop-color:#7FB949"/>
		<stop  offset="0.8052" style="stop-color:#74B250"/>
		<stop  offset="1" style="stop-color:#74B250"/>
	</linearGradient>
	<rect x="546.571" y="77.706" clip-path="url(#SVGID_20_)" fill="url(#SVGID_21_)" width="75.104" height="88.33"/>
</g>
<g>
	<defs>
		<path id="SVGID_22_" d="M257.468,2.521c-0.361,0.409-0.723,0.817-1.12,1.191c-1.768,1.672-3.805,2.959-5.913,4.142
			c-3.193,1.792-6.527,3.301-9.86,4.81c-3.98,1.804-7.978,3.569-11.858,5.587c-3.401,1.768-6.7,3.7-9.701,6.107
			c-3.981,3.191-6.862,7.16-8.503,12.004c-1.406,4.148-1.773,8.409-1.353,12.755c0.24,2.482,0.734,4.91,1.461,7.294
			c0.764,2.498,1.836,4.883,2.681,7.352c0.065,0.193,0.196,0.347,0.376,0.45c0.335,0.19,0.525,0.086,0.53-0.29
			c0.001-0.126-0.011-0.252-0.027-0.376c-0.322-2.616-0.507-5.241-0.455-7.88c0.046-2.502,0.295-4.978,0.832-7.423
			c1.515-6.903,5.132-12.392,11.007-16.362c3.448-2.329,7.242-3.896,11.208-5.085c2.562-0.768,5.171-1.343,7.798-1.84
			c0.548-0.104,1.104-0.186,1.655-0.278c-0.127,0.179-0.311,0.216-0.483,0.27c-1.868,0.596-3.701,1.289-5.478,2.123
			c-5.281,2.476-9.858,5.863-13.385,10.549c-4.696,6.241-6.854,13.232-5.981,21.065c0.261,2.349,0.879,4.609,1.835,6.771
			c0.59,1.333,1.443,1.852,2.903,1.777c0.827-0.042,1.653-0.099,2.48-0.173c2.479-0.223,4.933-0.597,7.359-1.148
			c3.999-0.907,7.824-2.274,11.389-4.324c3.584-2.06,6.659-4.7,9.131-8.027c2.31-3.111,3.888-6.578,4.976-10.28
			c1.448-4.924,1.912-9.971,1.862-15.079c-0.021-2.163-0.162-4.318-0.364-6.472c-0.283-2.999-0.72-5.974-1.256-8.936
			c-0.601-3.322-1.34-6.615-2.146-9.892c-0.093-0.375-0.18-0.804-0.627-0.905c-0.055-0.013-0.107-0.019-0.157-0.019
			C257.935,1.979,257.693,2.265,257.468,2.521"/>
	</defs>
	<clipPath id="SVGID_23_">
		<use xlink:href="#SVGID_22_"  overflow="visible"/>
	</clipPath>
	
		<linearGradient id="SVGID_24_" gradientUnits="userSpaceOnUse" x1="-105.9399" y1="454.959" x2="-104.9399" y2="454.959" gradientTransform="matrix(-42.6399 63.6948 63.6948 42.6399 -33237.832 -12649.9795)">
		<stop  offset="0" style="stop-color:#8DC63F"/>
		<stop  offset="0.3238" style="stop-color:#8AC241"/>
		<stop  offset="0.6266" style="stop-color:#7FB949"/>
		<stop  offset="0.8052" style="stop-color:#74B250"/>
		<stop  offset="1" style="stop-color:#74B250"/>
	</linearGradient>
	<polygon clip-path="url(#SVGID_23_)" fill="url(#SVGID_24_)" points="293.084,22.196 246.128,92.338 178.54,47.092 225.496,-23.05 
			"/>
</g>
<g>
	<defs>
		<rect id="SVGID_25_" x="-105.94" y="-140.28" width="841.89" height="595.28"/>
	</defs>
	<clipPath id="SVGID_26_">
		<use xlink:href="#SVGID_25_"  overflow="visible"/>
	</clipPath>
	<polygon clip-path="url(#SVGID_26_)" fill="#754C29" points="138.946,222.432 138.946,226.477 127.209,226.477 127.209,233.88 
		137.429,233.88 137.429,237.89 127.209,237.89 127.209,248.724 122.983,248.724 122.983,222.432 	"/>
	<path clip-path="url(#SVGID_26_)" fill="#754C29" d="M159.854,248.724l-5.922-9.137H153.5h-3.794v9.137h-4.225v-26.292h7.404
		c2.938,0,5.29,0.747,7.06,2.239c1.77,1.494,2.654,3.563,2.654,6.212c0,1.612-0.342,3.111-1.03,4.496
		c-0.685,1.385-1.763,2.45-3.231,3.195l6.392,10.149H159.854z M149.707,235.541h3.756c1.686,0,2.908-0.463,3.666-1.391
		c0.758-0.925,1.138-1.967,1.138-3.123c0-0.674-0.144-1.354-0.433-2.041c-0.288-0.685-0.782-1.275-1.481-1.77
		c-0.699-0.491-1.614-0.74-2.745-0.74h-3.901V235.541z"/>
	<path clip-path="url(#SVGID_26_)" fill="#754C29" d="M170.219,228.914c1.203-2.059,2.835-3.701,4.894-4.928
		c2.058-1.229,4.304-1.843,6.735-1.843c2.407,0,4.64,0.613,6.699,1.843c2.059,1.227,3.703,2.876,4.931,4.948
		c1.227,2.068,1.84,4.296,1.84,6.681c0,2.431-0.609,4.671-1.822,6.716c-1.217,2.047-2.86,3.672-4.931,4.875
		c-2.07,1.204-4.31,1.806-6.717,1.806c-2.431,0-4.677-0.596-6.735-1.788c-2.059-1.191-3.691-2.81-4.894-4.857
		c-1.203-2.045-1.806-4.296-1.806-6.751C168.413,233.207,169.016,230.973,170.219,228.914 M173.975,240.311
		c0.817,1.419,1.933,2.55,3.342,3.394c1.408,0.842,2.953,1.263,4.639,1.263c1.663,0,3.179-0.415,4.552-1.245
		c1.371-0.831,2.46-1.962,3.267-3.394c0.806-1.434,1.21-3.005,1.21-4.713c0-1.711-0.41-3.286-1.228-4.733
		c-0.818-1.442-1.927-2.588-3.322-3.429c-1.397-0.842-2.925-1.266-4.587-1.266c-1.686,0-3.22,0.424-4.604,1.266
		c-1.384,0.841-2.48,1.986-3.287,3.429c-0.806,1.447-1.21,3.022-1.21,4.733C172.747,237.323,173.158,238.888,173.975,240.311"/>
	<polygon clip-path="url(#SVGID_26_)" fill="#754C29" points="228.544,221.493 228.544,248.723 224.354,248.723 224.354,233.518 
		215.146,246.592 215.072,246.592 206.082,234.134 206.082,248.723 202,248.723 202,221.493 202.037,221.493 215.146,240.056 
		228.472,221.493 	"/>
	<path clip-path="url(#SVGID_26_)" fill="#754C29" d="M257.253,226.007c-1.3,0-2.329,0.291-3.088,0.868
		c-0.758,0.577-1.137,1.37-1.137,2.383c0,0.987,0.476,1.812,1.426,2.474c0.952,0.663,2.281,1.318,3.992,1.968
		c1.298,0.458,2.413,0.981,3.339,1.572c0.928,0.59,1.691,1.39,2.295,2.4c0.6,1.012,0.902,2.287,0.902,3.827
		c0,1.398-0.349,2.661-1.047,3.794c-0.7,1.132-1.711,2.034-3.034,2.707c-1.325,0.675-2.889,1.013-4.695,1.013
		c-1.589,0-3.154-0.247-4.694-0.741c-1.541-0.494-2.914-1.173-4.118-2.039l1.879-3.287c0.889,0.672,1.943,1.233,3.16,1.678
		c1.215,0.447,2.341,0.67,3.377,0.67c1.274,0,2.393-0.308,3.357-0.922c0.963-0.613,1.445-1.557,1.445-2.834
		c0-1.011-0.403-1.853-1.21-2.527c-0.806-0.676-1.932-1.287-3.377-1.844c-1.492-0.554-2.733-1.102-3.72-1.642
		c-0.988-0.542-1.836-1.3-2.546-2.277c-0.709-0.974-1.065-2.194-1.065-3.666c0-2.142,0.728-3.867,2.185-5.181
		c1.457-1.312,3.377-2.015,5.76-2.112c1.734,0,3.258,0.198,4.569,0.596c1.312,0.396,2.532,0.957,3.665,1.68l-1.589,3.214
		C261.021,226.598,259.011,226.007,257.253,226.007"/>
	<path clip-path="url(#SVGID_26_)" fill="#754C29" d="M271.771,228.914c1.203-2.059,2.834-3.701,4.893-4.928
		c2.059-1.229,4.305-1.843,6.736-1.843c2.407,0,4.64,0.613,6.698,1.843c2.06,1.227,3.703,2.876,4.932,4.948
		c1.227,2.068,1.84,4.296,1.84,6.681c0,2.431-0.609,4.671-1.822,6.716c-1.217,2.047-2.86,3.672-4.932,4.875
		c-2.069,1.204-4.309,1.806-6.716,1.806c-2.431,0-4.677-0.596-6.736-1.788c-2.059-1.191-3.69-2.81-4.893-4.857
		c-1.204-2.045-1.806-4.296-1.806-6.751C269.965,233.207,270.567,230.973,271.771,228.914 M275.527,240.311
		c0.817,1.419,1.933,2.55,3.342,3.394c1.408,0.842,2.953,1.263,4.639,1.263c1.663,0,3.178-0.415,4.552-1.245
		c1.371-0.831,2.46-1.962,3.267-3.394c0.806-1.434,1.21-3.005,1.21-4.713c0-1.711-0.41-3.286-1.228-4.733
		c-0.818-1.442-1.927-2.588-3.322-3.429c-1.397-0.842-2.925-1.266-4.587-1.266c-1.686,0-3.221,0.424-4.604,1.266
		c-1.384,0.841-2.48,1.986-3.287,3.429c-0.806,1.447-1.21,3.022-1.21,4.733C274.299,237.323,274.709,238.888,275.527,240.311"/>
	<rect x="303.548" y="222.431" clip-path="url(#SVGID_26_)" fill="#754C29" width="4.226" height="26.292"/>
	<polygon clip-path="url(#SVGID_26_)" fill="#754C29" points="320.305,222.432 320.305,244.678 333.27,244.678 333.27,248.724 
		316.08,248.724 316.08,222.432 	"/>
	<polygon clip-path="url(#SVGID_26_)" fill="#754C29" points="368.263,222.432 368.263,226.477 361.475,226.477 361.475,248.724 
		357.287,248.724 357.287,226.477 350.676,226.477 350.676,222.432 	"/>
	<path clip-path="url(#SVGID_26_)" fill="#754C29" d="M373.86,228.914c1.204-2.059,2.835-3.701,4.894-4.928
		c2.059-1.229,4.305-1.843,6.736-1.843c2.406,0,4.64,0.613,6.698,1.843c2.059,1.227,3.703,2.876,4.931,4.948
		c1.228,2.068,1.841,4.296,1.841,6.681c0,2.431-0.608,4.671-1.822,6.716c-1.218,2.047-2.859,3.672-4.932,4.875
		c-2.068,1.204-4.31,1.806-6.716,1.806c-2.432,0-4.678-0.596-6.736-1.788c-2.059-1.191-3.689-2.81-4.894-4.857
		c-1.203-2.045-1.805-4.296-1.805-6.751C372.055,233.207,372.657,230.973,373.86,228.914 M377.616,240.311
		c0.818,1.419,1.935,2.55,3.342,3.394c1.408,0.842,2.954,1.263,4.64,1.263c1.663,0,3.179-0.415,4.552-1.245
		c1.371-0.831,2.46-1.962,3.267-3.394c0.807-1.434,1.21-3.005,1.21-4.713c0-1.711-0.409-3.286-1.228-4.733
		c-0.817-1.442-1.927-2.588-3.321-3.429c-1.397-0.842-2.926-1.266-4.587-1.266c-1.687,0-3.221,0.424-4.604,1.266
		c-1.386,0.841-2.481,1.986-3.288,3.429c-0.807,1.447-1.21,3.022-1.21,4.733C376.388,237.323,376.798,238.888,377.616,240.311"/>
	<path clip-path="url(#SVGID_26_)" fill="#754C29" d="M426.044,226.007c-1.301,0-2.33,0.291-3.088,0.868
		c-0.759,0.577-1.138,1.37-1.138,2.383c0,0.987,0.477,1.812,1.426,2.474c0.952,0.663,2.281,1.318,3.992,1.968
		c1.298,0.458,2.413,0.981,3.339,1.572c0.929,0.59,1.691,1.39,2.295,2.4c0.6,1.012,0.902,2.287,0.902,3.827
		c0,1.398-0.349,2.661-1.048,3.794c-0.698,1.132-1.71,2.034-3.033,2.707c-1.324,0.675-2.89,1.013-4.694,1.013
		c-1.59,0-3.154-0.247-4.695-0.741s-2.914-1.173-4.117-2.039l1.879-3.287c0.89,0.672,1.943,1.233,3.16,1.678
		c1.215,0.447,2.342,0.67,3.376,0.67c1.274,0,2.395-0.308,3.357-0.922c0.963-0.613,1.446-1.557,1.446-2.834
		c0-1.011-0.403-1.853-1.21-2.527c-0.808-0.676-1.934-1.287-3.377-1.844c-1.492-0.554-2.733-1.102-3.721-1.642
		c-0.987-0.542-1.836-1.3-2.546-2.277c-0.71-0.974-1.064-2.194-1.064-3.666c0-2.142,0.727-3.867,2.184-5.181
		c1.457-1.312,3.377-2.015,5.76-2.112c1.734,0,3.258,0.198,4.569,0.596c1.312,0.396,2.532,0.957,3.666,1.68l-1.59,3.214
		C429.812,226.598,427.801,226.007,426.044,226.007"/>
	<path clip-path="url(#SVGID_26_)" fill="#754C29" d="M440.561,228.914c1.203-2.059,2.835-3.701,4.894-4.928
		c2.059-1.229,4.305-1.843,6.736-1.843c2.406,0,4.641,0.613,6.698,1.843c2.059,1.227,3.703,2.876,4.931,4.948
		c1.228,2.068,1.841,4.296,1.841,6.681c0,2.431-0.608,4.671-1.822,6.716c-1.218,2.047-2.859,3.672-4.932,4.875
		c-2.069,1.204-4.31,1.806-6.716,1.806c-2.432,0-4.678-0.596-6.736-1.788c-2.059-1.191-3.69-2.81-4.894-4.857
		c-1.203-2.045-1.805-4.296-1.805-6.751C438.756,233.207,439.358,230.973,440.561,228.914 M444.317,240.311
		c0.818,1.419,1.935,2.55,3.342,3.394c1.408,0.842,2.953,1.263,4.64,1.263c1.663,0,3.179-0.415,4.552-1.245
		c1.371-0.831,2.46-1.962,3.267-3.394c0.807-1.434,1.21-3.005,1.21-4.713c0-1.711-0.409-3.286-1.228-4.733
		c-0.817-1.442-1.927-2.588-3.321-3.429c-1.397-0.842-2.926-1.266-4.587-1.266c-1.687,0-3.221,0.424-4.604,1.266
		c-1.385,0.841-2.48,1.986-3.287,3.429c-0.807,1.447-1.21,3.022-1.21,4.733C443.089,237.323,443.5,238.888,444.317,240.311"/>
	<path clip-path="url(#SVGID_26_)" fill="#754C29" d="M476.928,242.078c0.529,0.867,1.252,1.561,2.167,2.075
		c0.914,0.519,1.915,0.778,2.997,0.778c1.131,0,2.16-0.253,3.088-0.758c0.926-0.507,1.655-1.193,2.186-2.06
		c0.528-0.865,0.795-1.817,0.795-2.854v-16.829h4.152v16.939c0,1.878-0.45,3.544-1.355,5.001c-0.901,1.457-2.135,2.595-3.7,3.412
		s-3.287,1.229-5.165,1.229s-3.593-0.411-5.146-1.229s-2.776-1.955-3.666-3.412c-0.891-1.457-1.336-3.123-1.336-5.001v-16.939h4.189
		v16.829C476.134,240.271,476.399,241.212,476.928,242.078"/>
	<polygon clip-path="url(#SVGID_26_)" fill="#754C29" points="504.41,222.432 504.41,244.678 517.375,244.678 517.375,248.724 
		500.184,248.724 500.184,222.432 	"/>
</g>
</svg>
